<svg viewBox="0 0 1000 1000" xmlns="http://www.w3.org/2000/svg" xmlns:xlink="http://www.w3.org/1999/xlink"><linearGradient id="a"><stop offset="0" stop-color="#ffd555"/><stop offset="1" stop-color="#ffcb27"/></linearGradient><linearGradient id="b" gradientTransform="matrix(.98704 .23824 -.9468 1.3017 230.53 -134.51)" gradientUnits="userSpaceOnUse" x1="716.07" x2="787.83" y1="454.99" y2="219.39"><stop offset="0"/><stop offset="1" stop-color="#3c3c3c" stop-opacity="0"/></linearGradient><filter id="c"><feGaussianBlur stdDeviation="10"/></filter><linearGradient id="d" gradientTransform="matrix(1.0062 .23807 -.23807 1.0062 94.828 -143.1)" gradientUnits="userSpaceOnUse" x1="455" x2="532.2" y1="690" y2="656.35"><stop offset="0" stop-opacity=".36869"/><stop offset="1" stop-color="#3c3c3c" stop-opacity="0"/></linearGradient><filter id="e" height="1.6176" width="1.0662" x="-.033087" y="-.30881"><feGaussianBlur stdDeviation="11.58046"/></filter><filter id="f" color-interpolation-filters="sRGB"><feGaussianBlur stdDeviation=".5"/></filter><clipPath id="g"><path d="m1320 320c15 5 25 20 25 20 10 15 10 40 10 40 5 10 5 30 0 40 0 0 0 25-10 40 0 0-10 15-25 20h540l40-20 20-40v-40l-20-40-40-20z"/></clipPath><clipPath id="h"><path d="m1320 320-200 80 200 80 60-20v-120z"/></clipPath><clipPath id="i"><path d="m80 140h800v800h-800z"/></clipPath><clipPath id="j"><path d="m255.85-55.827h427.56v1040h-427.56z" transform="matrix(.98233 .18717 0 1 0 0)"/></clipPath><clipPath id="k"><path d="m31.923 874.34 200.04 100.23 419.97-80.09 199.44 99.734v-840.06l-199.44-99.73-419.97 80.091-200.04-100.23z"/></clipPath><clipPath id="l"><path d="m24.202 100.97 225.77 18.969 9.9354 7.2365 4.9204 812.94-14.817 19.843-225.81 112.71z"/></clipPath><clipPath id="m"><path d="m670.56 120.09 220.5-38.478-6.6071 882.19-213.89-3.6131-16.826-7.4582-3.1965-803.02z"/></clipPath><linearGradient id="n" gradientUnits="userSpaceOnUse" x1="146.47" x2="826.26" xlink:href="#a" y1="211.9" y2="900.62"/><linearGradient id="o" gradientUnits="userSpaceOnUse" x1="1240" x2="1240" y1="480" y2="320"><stop offset="0" stop-color="#ad7a4a"/><stop offset="1" stop-color="#edb096"/></linearGradient><linearGradient id="p" gradientUnits="userSpaceOnUse" x1="1770.96" x2="1835.91" y1="405.23" y2="367.73"><stop offset="0" stop-color="#e6b636"/><stop offset=".5" stop-color="#f1cf09"/><stop offset=".5625" stop-color="#f0d609"/><stop offset=".625" stop-color="#f0b10a"/><stop offset=".6875" stop-color="#f0ce0b"/><stop offset=".75" stop-color="#f0aa0c"/><stop offset="1" stop-color="#ffd900"/></linearGradient><clipPath id="q"><path d="m80 140v800h800v-800z"/></clipPath><linearGradient gradientUnits="userSpaceOnUse" x1="-142.61" x2="537.18" xlink:href="#a" y1="203.7953" y2="892.5153"/><g display="none"><g id="r" transform="translate(-40 -320)"><path d="m1320 320-126.92 50.767-31.082 21.733-42 7.5 41.772 3.2586 31.203 25.931 127.03 50.81 60-20v-120z" display="inline" fill="url(#o)"/><g clip-path="url(#g)"><path clip-path="none" d="m1280 350v100h660v-100z" display="inline" fill="#853909"/><path clip-path="none" d="m1940 380v-40l-85-10h-480l-95 10v40z" fill="#974613"/><path clip-path="none" d="m1940 420v40l-85 10h-495l-80-10v-40z" fill="#642b06"/><path clip-path="none" d="m1280 320v20h660v-20z" display="inline" fill="#b25c28"/><path clip-path="none" d="m1280 460v20h660v-20z" display="inline" fill="#4d2105"/></g><path d="m1780.1 386.07c-3.9797 0-6.2505.74145-7.6328 1.8047-.691.53161-1.1262 1.1488-1.3554 1.6777-.2288.52896-.2618 1.1406-.2618 1.1406v20.232s.033.61361.2618 1.1426c.2292.52897.6644 1.1461 1.3554 1.6777 1.3823 1.0632 3.6531 1.8047 7.6328 1.8047 3.9798 0 6.2506-.74146 7.6328-1.8047.6911-.53162 1.1263-1.1488 1.3555-1.6777.2288-.52897.2598-1.1426.2598-1.1426v-20.232s-.031-.61167-.2598-1.1406c-.2292-.52898-.6643-1.1461-1.3555-1.6777-1.3821-1.0632-3.653-1.8047-7.6328-1.8047zm22.545 0c-3.9798 0-6.2526.74145-7.6348 1.8047-.6911.53161-1.1243 1.1488-1.3535 1.6777-.2297.52896-.2617 1.1406-.2617 1.1406v5.7812c0 1.1128.6388 1.8632 1.2343 2.3867.5955.52351 1.2826.92722 2.0567 1.3242 1.5483.79397 3.4572 1.5216 5.3359 2.2441s3.7282 1.4406 4.9981 2.0918c.6349.32559 1.1212.64468 1.3476.84375.059.0496.043.0373.059.0566v5.2949c-.011.0268-.038.10759-.2637.28125-.4968.38198-1.9824 1.084-5.5175 1.084s-5.0212-.70207-5.5176-1.084c-.2374-.18268-.2674-.27688-.2774-.29688-.2731-2.1586-3.465-1.9512-3.455.22461 0 0 .033.61361.2617 1.1426.2292.52897.6625 1.1461 1.3535 1.6777 1.3822 1.0632 3.6551 1.8047 7.6348 1.8047s6.2506-.74146 7.6328-1.8047c.691-.53162 1.1261-1.1488 1.3554-1.6777.2298-.52897.2598-1.1426.2598-1.1426v-5.7793c0-1.1128-.639-1.8632-1.2344-2.3867-.5956-.52351-1.2825-.92919-2.0566-1.3262-1.5483-.79398-3.4572-1.5196-5.3359-2.2422s-3.7263-1.4406-4.9961-2.0918c-.6349-.32558-1.1232-.64468-1.3496-.84375-.057-.0496-.041-.0373-.057-.0566v-5.2949c.011-.0268.038-.10759.2637-.28125.4968-.38198 1.9825-1.0859 5.5176-1.0859s5.021.70402 5.5175 1.0859c.2374.18267.2654.27492.2754.29492.2721 2.1597 3.4651 1.9522 3.4551-.22461 0 0-.031-.61167-.2598-1.1406-.2293-.52898-.6644-1.1461-1.3554-1.6777-1.3822-1.0632-3.6531-1.8047-7.6328-1.8047zm-37.602.55274c-.9572.015-1.721.80261-1.707 1.7598v23.014c-.2878.28077-.7444.68555-1.1563.68555h-5.7812c-.5781 0-1.4473-.96094-1.4473-.96094-1.2643-2.0118-4.2562-.0165-2.8848 1.9238 0 0 1.4418 2.5059 4.3321 2.5059h5.7812c2.8903 0 4.332-2.5059 4.332-2.5059.1907-.28495.2926-.62003.293-.96289v-23.699c.014-.97858-.7832-1.7753-1.7617-1.7598zm52.719.0234c-.9047-.0348-1.8222.62738-1.8222 1.7363v24.855c-.01 2.3208 3.4787 2.3208 3.4687 0v-18.381l5.4336 9.4219c.6675 1.1561 2.3363 1.1561 3.0039 0l5.4356-9.4219v18.381c-.01 2.3208 3.4787 2.3208 3.4687 0v-24.855c.0004-.97885-.8087-1.7642-1.7871-1.7344-.6007.0185-1.149.34656-1.4492.86718l-7.1699 12.426-7.168-12.426c-.3327-.5762-.8712-.84826-1.4141-.86914zm-37.662 2.8906c3.5351 0 5.0211.70403 5.5176 1.0859.2257.17367.2527.25445.2637.28125v19.812c-.011.0268-.038.10759-.2637.28125-.4965.38192-1.9825 1.084-5.5176 1.084s-5.0209-.70206-5.5175-1.084c-.2257-.17366-.2527-.25445-.2637-.28125v-19.812c.011-.0268.038-.10758.2637-.28125.4966-.38191 1.9824-1.0859 5.5175-1.0859z" display="inline" fill="#120e02" fill-opacity=".84343" filter="url(#f)"/><path clip-path="url(#h)" d="m1115 400 65-40c30 15 30 65 0 80z" fill="#3d3d3d"/><path d="m1779.5 385.19c-3.9797 0-6.2511.74208-7.6334 1.8053-.691.53161-1.1255 1.1488-1.3548 1.6777-.2292.52896-.2608 1.1414-.2608 1.1414v20.232s.032.61248.2608 1.1414c.2293.52897.6638 1.1461 1.3548 1.6777 1.3823 1.0632 3.6537 1.8053 7.6334 1.8053 3.9798 0 6.2512-.74208 7.6334-1.8053.6911-.53162 1.1256-1.1488 1.3548-1.6777s.2609-1.1414.2609-1.1414v-20.232s-.032-.61248-.2609-1.1414c-.2292-.52898-.6637-1.1461-1.3548-1.6777-1.3822-1.0632-3.6536-1.8053-7.6334-1.8053zm22.544 0c-3.9798 0-6.2512.74208-7.6334 1.8053-.6911.53161-1.1256 1.1488-1.3548 1.6777-.2292.52896-.2609 1.1414-.2609 1.1414v5.7806c0 1.1128.6397 1.8633 1.2352 2.3868.5955.52351 1.2819.92735 2.056 1.3244 1.5483.79397 3.4571 1.5208 5.3358 2.2434s3.7272 1.4409 4.9971 2.0921c.6349.32559 1.1227.64432 1.3491.84339.057.05.041.0371.057.0564v5.2951c-.011.0268-.037.10747-.2631.28113-.4968.38198-1.9826 1.085-5.5177 1.085s-5.0211-.70308-5.5175-1.085c-.2376-.18268-.2686-.27582-.2767-.29581a1.7344 1.7344 0 0 0 -3.4548.22467s.032.61248.2608 1.1414c.2292.52897.6638 1.1461 1.3548 1.6777 1.3822 1.0632 3.6537 1.8053 7.6334 1.8053s6.2512-.74208 7.6334-1.8053c.691-.53162 1.1255-1.1488 1.3548-1.6777s.2608-1.1414.2608-1.1414v-5.7806c0-1.1128-.6397-1.8632-1.2351-2.3868-.5956-.52351-1.2819-.92736-2.056-1.3244-1.5483-.79398-3.4571-1.5208-5.3358-2.2434-1.8787-.72259-3.7273-1.4409-4.9971-2.0921-.6349-.32558-1.1227-.64432-1.3491-.84339-.058-.05-.041-.0371-.057-.0564v-5.2951c.011-.0268.037-.10747.2631-.28113.4968-.38198 1.9826-1.085 5.5177-1.085s5.0211.70308 5.5176 1.085c.2374.18267.2685.27581.2765.29581a1.7344 1.7344 0 0 0 3.4549-.22468s-.032-.61248-.2608-1.1414c-.2293-.52898-.6638-1.1461-1.3548-1.6777-1.3822-1.0632-3.6537-1.8053-7.6334-1.8053zm-37.6.55322a1.7344 1.7344 0 0 0 -1.7082 1.759v23.015c-.2878.28077-.7442.68532-1.1561.68532h-5.7806c-.5781 0-1.4474-.96193-1.4474-.96193a1.7344 1.7344 0 1 0 -2.8858 1.9239s1.4429 2.5064 4.3332 2.5064h5.7806c2.8903 0 4.3332-2.5064 4.3332-2.5064a1.7344 1.7344 0 0 0 .2913-.96193v-23.701a1.7344 1.7344 0 0 0 -1.7602-1.759zm69.92.026a1.7344 1.7344 0 0 0 -1.4498.86597l-7.1693 12.427-7.1693-12.427a1.7344 1.7344 0 0 0 -3.2358.8671v24.857a1.7344 1.7344 0 1 0 3.4684 0v-18.381l5.4351 9.4206a1.7344 1.7344 0 0 0 3.0033 0l5.4351-9.4206v18.381a1.7344 1.7344 0 1 0 3.4684 0v-24.857a1.7344 1.7344 0 0 0 -1.7861-1.7331zm-54.864 2.8892c3.5351 0 5.0211.70308 5.5176 1.085.2258.17367.2518.25429.2631.28114v19.812c-.011.0268-.037.10747-.2631.28113-.4965.38192-1.9825 1.085-5.5176 1.085s-5.021-.70307-5.5176-1.085c-.2257-.17366-.2518-.25429-.263-.28113v-19.812c.011-.0268.037-.10747.263-.28114.4966-.38191 1.9825-1.085 5.5176-1.085z" display="inline" fill="url(#p)" stroke="#000" stroke-opacity=".13433" stroke-width=".5"/></g></g><g display="none"><g id="s" clip-path="url(#q)"><path d="m80 140v800h800v-800h-533.33z" display="inline" fill="url(#n)"/><path d="m531.5 222.5 15 92 35 55.5 70 68 12.5 59.5 38 206.5 49 69 58.257-28.161s-2.1864-22.553-4.9461-33.497c-3.0728-12.186-6.5571-24.564-12.837-35.45-6.7681-11.733-19.666-19.213-26.147-31.107-8.2251-15.095-7.3774-33.969-15.183-49.285-6.7183-13.182-20.046-22.257-26.644-35.5-9.1263-18.319-13.796-38.786-17-59-4.6213-29.153 5.0205-60.094-3-88.5-8.4371-29.882-24.655-58.45-46-81-19.069-20.145-50.438-25.333-70-45-11.836-11.9-20.345-27.092-27-42.5-11.185-25.894-20.895-82-20.895-82l-12.105-4.0005zm-191.75 616.43s63.309.96432 94.581 5.3432c23.45 3.2836 46.793 8.2605 69.296 15.627 18.808 6.1569 34.679 22.427 54.426 23.716 16.721 1.0915 35.08-3.6281 48.304-13.919 11.784-9.1705 18.18-24.415 22.596-38.679 4.4046-14.228 5.7993-29.902 3.201-44.569-4.0062-22.613-28.243-62.841-28.243-62.841l107.44 79.811-16 127.22-41.559 11.355-93.244 1-218.56-23.598z" fill="#fff3aa"/><path d="m550.71 133.99-61.414.70711c-10 20-29.293 64.072-29.293 105.3 0 110 43.061 102.8 70 170 26.924 67.167 25.747 148.73 40 220 10 50 26.769 121.42 70 145 12.415 6.772 40 65 40 95 0 31.181-14.254 51.281-32.71 74l235.71-2 3-83c-10-80-136-189-170.28-233.28-48.427-62.554-31.486-96.719-45.719-170.72-16.322-84.86-90.308-90.354-110-155-33.636-110.42-9.2929-126.01-9.2929-166.01zm-187.79 696.02c-47.495-5.0249-87.293 15.056-126.93 33.75-22.567 10.642-36.972-11.182-77.421 79.236l408.48 1c-25.217-26.943-59.673-69.761-113.61-77.117-44.093-6.0127-19.929-29.401-90.515-36.868z" fill="#316ed9"/><path d="m410.16 136.5c-10 20-34.115 55.17-59.539 71.06-24.626 15.391-90.258 24.027-128.91 19.938-45.235-4.7851-54.207-16.326-147.71-2.5097l3-88.988z" fill="#009d00"/></g></g><g display="none"><g id="t" clip-path="url(#i)"><path d="m-125.68 332h266.73v297.25h-266.73z" fill="#8c133f" transform="matrix(.99452445 -.10450416 .10450416 .99452445 0 0)"/><path d="m211.04 436.22h108.51v193.02h-108.51z" display="inline" fill="#33757c" transform="matrix(.99452445 -.10450416 .10450416 .99452445 0 0)"/><path d="m-23.249 725.65 457.48-48.083" display="inline" fill="none" stroke="#234868" stroke-opacity=".87879" stroke-width="50"/><path d="m19.638 942.35 165.96-238.66" display="inline" fill="none" stroke="#234868" stroke-opacity=".87879" stroke-width="40"/><path d="m220.71 694.29c5.1944 19.388-6.3115 39.315-25.699 44.51-19.388 5.1944-39.315-6.3116-44.51-25.699-5.1944-19.388 6.3115-39.315 25.699-44.51 19.388-5.1944 39.315 6.3115 44.51 25.699z" style="display:inline;fill:#fff;stroke:#0d4474;stroke-linecap:round;stroke-linejoin:round;stroke-opacity:.87879;stroke-width:8"/><path d="m469.34 668.16c5.1944 19.388-6.3116 39.315-25.699 44.51-19.388 5.1944-39.315-6.3116-44.51-25.699-5.1944-19.388 6.3116-39.315 25.699-44.51 19.388-5.1944 39.315 6.3116 44.51 25.699z" style="display:inline;fill:#fff;stroke:#0d4474;stroke-linecap:round;stroke-linejoin:round;stroke-opacity:.87879;stroke-width:8"/></g></g><g display="none"><g id="u" transform="matrix(1.0501 0 0 1.0501 -44.07 -27.074)"><use display="inline" height="100%" width="100%" xlink:href="#s"/><use display="inline" height="100%" width="100%" xlink:href="#t"/></g></g><path d="m42.5 875 157 82.5 339.5-49.5 167.42 58.282-159.72-193.81-349.3 31.287z" filter="url(#e)" transform="matrix(1.1752 0 0 1.1752 -3.5969 -179.75)"/><use clip-path="url(#m)" height="100%" transform="matrix(.93735 .46871 0 .98421 13.567 -378.78)" width="100%" xlink:href="#u"/><use clip-path="url(#l)" height="100%" transform="matrix(.93735 .46968 0 .98421 -5.5112 -103.04)" width="100%" xlink:href="#u"/><use clip-path="url(#j)" height="100%" transform="matrix(.98421 -.18753 0 .98421 -18.576 61.421)" width="100%" xlink:href="#u"/><path clip-path="url(#k)" d="m31.074 33.33-.32002 842.49 201.21 100.42v-843.52zm620.77 20.744v843.93l202.14 98.428-1.3149-843.29z" fill="#fff" fill-opacity=".40909" transform="matrix(.98421 0 0 .98421 .50408 .023626)"/><path d="m572.1 580.75-95.569 102.6 204.98-117.81 25.757-36.294 161.97-75.173-34.804-178.53-170.78 127.79z" fill="url(#b)" filter="url(#c)" transform="matrix(1.0219 .16971 -.15751 1.02 2.6685 -114.58)"/><path d="m382.15 663.32 195.91-58.147-3.4364-48.982z" fill="url(#d)"/><use height="100%" transform="matrix(.69887 -.76199 .76199 .69887 -433.6 1430.4)" width="100%" xlink:href="#r"/></svg>